<?xml version="1.0" encoding="utf-8"?>
<!-- Generator: Adobe Illustrator 16.0.0, SVG Export Plug-In . SVG Version: 6.00 Build 0)  -->
<!DOCTYPE svg PUBLIC "-//W3C//DTD SVG 1.1//EN" "http://www.w3.org/Graphics/SVG/1.1/DTD/svg11.dtd">
<svg version="1.1" id="Layer_1" xmlns="http://www.w3.org/2000/svg" xmlns:xlink="http://www.w3.org/1999/xlink" x="0px" y="0px"
	 width="586.331px" height="151.664px" viewBox="0 0 586.331 151.664" enable-background="new 0 0 586.331 151.664"
	 xml:space="preserve">
<linearGradient id="SVGID_1_" gradientUnits="userSpaceOnUse" x1="70.6499" y1="-9.3154" x2="156.6578" y2="113.5166">
	<stop  offset="0.0054" style="stop-color:#00459B"/>
	<stop  offset="0.103" style="stop-color:#0356A7"/>
	<stop  offset="0.2954" style="stop-color:#0B82C6"/>
	<stop  offset="0.454" style="stop-color:#12ABE3"/>
	<stop  offset="0.8438" style="stop-color:#93DDFE"/>
	<stop  offset="0.8528" style="stop-color:#96DEFF"/>
	<stop  offset="1" style="stop-color:#96DEFF"/>
</linearGradient>
<path fill-rule="evenodd" clip-rule="evenodd" fill="url(#SVGID_1_)" d="M58.757,3.261h88.142v73.292l-0.018,15.806
	c-0.007,4.106-0.076,9.524-0.96,13.554c-1.787,8.199-5.91,15.908-11.657,22.03c-7.854,8.368-14.826,10.928-25.45,13.563
	c2.887-3.386,4.186-6.356,4.755-11.991c0.37-3.65,0.118-7.789,0.133-11.485l0.01-60.987c0-5.322-2.386-10.769-6.17-14.823
	c-3.547-3.802-8.309-6.346-13.445-6.346c-2.162-0.019-4.323-0.056-6.487-0.015H39.851V21.724c0-4.319,1.323-7.998,4.063-11.374
	C47.736,5.627,52.837,3.411,58.757,3.261L58.757,3.261z"/>
<linearGradient id="SVGID_2_" gradientUnits="userSpaceOnUse" x1="62.6733" y1="156.5269" x2="22.012" y2="14.7239">
	<stop  offset="0" style="stop-color:#00459B"/>
	<stop  offset="0.0988" style="stop-color:#0356A7"/>
	<stop  offset="0.2935" style="stop-color:#0B82C6"/>
	<stop  offset="0.454" style="stop-color:#12ABE3"/>
	<stop  offset="0.8438" style="stop-color:#93DDFE"/>
	<stop  offset="0.8528" style="stop-color:#96DEFF"/>
	<stop  offset="1" style="stop-color:#96DEFF"/>
</linearGradient>
<path fill-rule="evenodd" clip-rule="evenodd" fill="url(#SVGID_2_)" d="M90.14,147.892H2V74.6l0.016-15.806
	c0.005-4.106,0.077-9.525,0.958-13.554c1.792-8.199,5.911-15.908,11.659-22.03c7.856-8.368,14.829-10.929,25.45-13.563
	c-2.887,3.385-4.184,6.356-4.756,11.991c-0.37,3.65-0.114,7.789-0.133,11.485l-0.007,60.986c0.001,5.322,2.386,10.77,6.167,14.823
	c3.549,3.801,8.313,6.347,13.445,6.345c2.163,0.021,4.324,0.057,6.489,0.017h47.759v14.134c0,4.319-1.322,7.998-4.063,11.375
	C101.162,145.525,96.061,147.74,90.14,147.892L90.14,147.892z"/>
<g>
	<path fill="#003399" d="M179.745,7.036h42.614c1.356,0,2.514,0.434,3.471,1.299c0.958,0.867,1.437,1.969,1.437,3.307
		c0,1.34-0.479,2.421-1.437,3.248s-2.115,1.24-3.471,1.24h-38.544l1.078-2.008v29.881l-1.197-1.299h33.277
		c1.356,0,2.514,0.434,3.471,1.299c0.958,0.867,1.437,1.969,1.437,3.307c0,1.339-0.479,2.421-1.437,3.248
		c-0.958,0.827-2.115,1.24-3.471,1.24h-32.918l0.838-1.063v30.59l-0.718-0.827h38.185c1.356,0,2.514,0.473,3.471,1.417
		s1.437,2.008,1.437,3.189c0,1.339-0.479,2.441-1.437,3.307c-0.958,0.868-2.115,1.299-3.471,1.299h-42.614
		c-1.358,0-2.495-0.473-3.412-1.417c-0.918-0.945-1.376-2.085-1.376-3.425V11.76c0-1.338,0.458-2.46,1.376-3.366
		C177.25,7.49,178.387,7.036,179.745,7.036z"/>
	<path fill="#003399" d="M292.503,28.059c1.356,0,2.493,0.454,3.412,1.358c0.917,0.906,1.376,2.028,1.376,3.366v52.085
		c0,1.34-0.46,2.48-1.376,3.425c-0.918,0.945-2.056,1.417-3.412,1.417c-1.437,0-2.594-0.473-3.471-1.417
		c-0.879-0.945-1.317-2.085-1.317-3.425v-11.22l2.274-0.236c0,1.733-0.599,3.623-1.795,5.669c-1.197,2.049-2.834,3.957-4.908,5.729
		c-2.076,1.771-4.53,3.229-7.361,4.37c-2.833,1.14-5.886,1.712-9.157,1.712c-5.428,0-10.294-1.397-14.604-4.193
		c-4.309-2.794-7.721-6.594-10.234-11.397c-2.514-4.802-3.771-10.275-3.771-16.417c0-6.219,1.257-11.711,3.771-16.476
		c2.514-4.763,5.925-8.503,10.234-11.22c4.31-2.716,9.098-4.075,14.364-4.075c3.43,0,6.623,0.552,9.576,1.654
		c2.952,1.104,5.525,2.598,7.721,4.488c2.194,1.89,3.909,3.977,5.147,6.26c1.236,2.285,1.855,4.567,1.855,6.85l-3.112-0.708V32.783
		c0-1.338,0.438-2.46,1.317-3.366C289.909,28.513,291.066,28.059,292.503,28.059z M267.844,82.152c3.989,0,7.521-1.022,10.594-3.071
		c3.071-2.046,5.465-4.822,7.182-8.326c1.715-3.503,2.574-7.459,2.574-11.87c0-4.329-0.859-8.247-2.574-11.751
		c-1.717-3.503-4.111-6.26-7.182-8.268c-3.073-2.008-6.604-3.012-10.594-3.012c-3.911,0-7.403,0.985-10.474,2.953
		c-3.073,1.969-5.487,4.686-7.242,8.149c-1.756,3.466-2.633,7.441-2.633,11.929c0,4.411,0.856,8.367,2.573,11.87
		c1.715,3.504,4.109,6.28,7.182,8.326C260.322,81.13,263.853,82.152,267.844,82.152z"/>
	<path fill="#003399" d="M311.536,80.026c-0.718-1.022-1.038-2.105-0.958-3.248c0.078-1.141,0.757-2.145,2.035-3.012
		c0.797-0.55,1.736-0.786,2.813-0.709c1.077,0.08,2.054,0.591,2.933,1.536c2.233,2.598,4.788,4.665,7.661,6.201
		c2.873,1.535,6.383,2.303,10.534,2.303c1.915-0.077,3.831-0.393,5.746-0.945c1.916-0.55,3.531-1.515,4.848-2.894
		c1.316-1.376,1.975-3.207,1.975-5.492c0-2.204-0.679-3.957-2.035-5.256c-1.358-1.299-3.112-2.362-5.267-3.189
		c-2.155-0.827-4.51-1.554-7.063-2.185c-2.633-0.708-5.228-1.515-7.781-2.421c-2.555-0.904-4.848-2.046-6.883-3.425
		c-2.035-1.377-3.671-3.11-4.908-5.197c-1.238-2.085-1.855-4.625-1.855-7.618c0-3.543,0.976-6.614,2.933-9.212
		c1.955-2.598,4.588-4.606,7.9-6.023c3.311-1.417,6.922-2.126,10.833-2.126c2.233,0,4.567,0.257,7.002,0.768
		c2.434,0.513,4.807,1.378,7.123,2.598c2.313,1.222,4.349,2.894,6.104,5.02c0.718,0.788,1.117,1.771,1.197,2.953
		c0.079,1.181-0.439,2.244-1.556,3.189c-0.879,0.631-1.855,0.906-2.933,0.827c-1.078-0.077-1.975-0.472-2.693-1.181
		c-1.676-1.967-3.771-3.484-6.284-4.547c-2.514-1.063-5.288-1.595-8.319-1.595c-1.916,0-3.792,0.277-5.626,0.827
		c-1.837,0.552-3.373,1.476-4.609,2.775c-1.238,1.299-1.855,3.091-1.855,5.374c0.078,2.126,0.796,3.858,2.154,5.197
		c1.356,1.339,3.191,2.421,5.506,3.248c2.313,0.827,4.867,1.635,7.661,2.421c2.553,0.631,5.007,1.358,7.361,2.185
		c2.353,0.827,4.489,1.91,6.404,3.248c1.915,1.34,3.43,3.052,4.549,5.138c1.116,2.087,1.676,4.706,1.676,7.854
		c0,3.623-1.038,6.752-3.112,9.39c-2.076,2.639-4.809,4.646-8.2,6.023c-3.393,1.376-7.043,2.067-10.953,2.067
		c-4.39,0-8.72-0.827-12.988-2.48C318.338,86.758,314.648,83.964,311.536,80.026z"/>
	<path fill="#003399" d="M369.352,29.003h28.13c1.275,0,2.334,0.434,3.172,1.299c0.838,0.867,1.256,1.89,1.256,3.071
		c0,1.26-0.418,2.303-1.256,3.13c-0.838,0.827-1.896,1.24-3.172,1.24h-28.13c-1.197,0-2.235-0.432-3.112-1.299
		c-0.879-0.865-1.316-1.928-1.316-3.189c0-1.181,0.438-2.185,1.316-3.012C367.117,29.417,368.155,29.003,369.352,29.003z
		 M381.92,12.941c1.356,0,2.473,0.454,3.352,1.358c0.877,0.906,1.317,2.028,1.317,3.366v57.046c0,1.89,0.278,3.307,0.838,4.252
		c0.557,0.945,1.296,1.594,2.214,1.949c0.917,0.354,1.814,0.531,2.693,0.531c0.797,0,1.496-0.137,2.095-0.414
		c0.599-0.275,1.297-0.413,2.096-0.413c0.795,0,1.535,0.375,2.213,1.122c0.678,0.749,1.018,1.712,1.018,2.894
		c0,1.417-0.838,2.619-2.514,3.602c-1.676,0.986-3.551,1.477-5.625,1.477c-1.119,0-2.495-0.078-4.13-0.236
		c-1.636-0.157-3.252-0.668-4.848-1.535c-1.597-0.866-2.933-2.303-4.01-4.311c-1.077-2.008-1.616-4.822-1.616-8.445V17.666
		c0-1.338,0.479-2.46,1.436-3.366C379.407,13.395,380.563,12.941,381.92,12.941z"/>
	<path fill="#003399" d="M443.207,90.892c-6.385,0-11.971-1.338-16.758-4.016c-4.789-2.676-8.52-6.357-11.191-11.043
		c-2.676-4.684-4.012-10.099-4.012-16.24c0-6.85,1.377-12.696,4.131-17.539c2.754-4.843,6.344-8.542,10.773-11.102
		c4.428-2.558,9.115-3.839,14.064-3.839c3.67,0,7.221,0.67,10.654,2.008c3.43,1.34,6.463,3.289,9.096,5.847
		c2.635,2.56,4.748,5.63,6.346,9.212c1.596,3.583,2.434,7.579,2.514,11.988c0,1.26-0.479,2.323-1.438,3.189
		c-0.957,0.867-2.076,1.299-3.352,1.299h-47.281l-2.154-8.149h46.084l-1.914,1.654v-2.599c-0.32-3.228-1.418-6.003-3.293-8.327
		c-1.875-2.321-4.15-4.113-6.822-5.374c-2.676-1.259-5.488-1.89-8.439-1.89c-2.395,0-4.77,0.413-7.123,1.24
		c-2.354,0.827-4.469,2.167-6.344,4.016c-1.875,1.851-3.393,4.233-4.549,7.146c-1.156,2.914-1.734,6.418-1.734,10.512
		c0,4.567,0.936,8.583,2.813,12.047c1.873,3.466,4.488,6.201,7.84,8.208s7.262,3.012,11.73,3.012c2.793,0,5.227-0.354,7.303-1.063
		c2.074-0.708,3.869-1.594,5.387-2.657c1.516-1.063,2.793-2.145,3.83-3.248c1.037-0.708,2.035-1.063,2.992-1.063
		c1.197,0,2.174,0.395,2.934,1.181c0.758,0.788,1.137,1.733,1.137,2.834c0,1.34-0.641,2.521-1.916,3.543
		c-2.234,2.441-5.266,4.588-9.096,6.437C451.586,89.966,447.518,90.892,443.207,90.892z"/>
	<path fill="#003399" d="M487.977,89.711c-1.357,0-2.494-0.473-3.412-1.417s-1.375-2.085-1.375-3.425V33.374
		c0-1.338,0.457-2.46,1.375-3.366c0.918-0.904,2.055-1.358,3.412-1.358c1.436,0,2.592,0.454,3.471,1.358
		c0.877,0.906,1.318,2.028,1.318,3.366v15.59l-1.438-2.48c0.479-2.439,1.336-4.822,2.574-7.146c1.236-2.321,2.813-4.409,4.729-6.26
		c1.914-1.849,4.107-3.307,6.582-4.37c2.473-1.063,5.188-1.595,8.141-1.595c1.754,0,3.371,0.414,4.848,1.24s2.215,1.989,2.215,3.484
		c0,1.653-0.439,2.875-1.316,3.661c-0.879,0.788-1.877,1.181-2.992,1.181c-1.039,0-2.035-0.216-2.994-0.649
		c-0.957-0.432-2.154-0.65-3.59-0.65c-1.996,0-3.971,0.532-5.926,1.595c-1.957,1.063-3.752,2.58-5.387,4.547
		c-1.637,1.969-2.953,4.193-3.949,6.673c-1,2.48-1.496,5.138-1.496,7.972v28.7c0,1.34-0.461,2.48-1.377,3.425
		C490.471,89.238,489.332,89.711,487.977,89.711z"/>
	<path fill="#003399" d="M561.949,27.114c5.426,0,9.697,1.104,12.809,3.307c3.113,2.205,5.326,5.158,6.645,8.858
		c1.316,3.702,1.975,7.836,1.975,12.401v33.188c0,1.34-0.461,2.48-1.377,3.425c-0.918,0.945-2.055,1.417-3.412,1.417
		s-2.494-0.473-3.41-1.417c-0.92-0.945-1.377-2.085-1.377-3.425V51.917c0-2.991-0.461-5.688-1.377-8.09
		c-0.918-2.401-2.436-4.33-4.549-5.787c-2.115-1.456-5.008-2.185-8.678-2.185c-3.352,0-6.426,0.729-9.217,2.185
		c-2.795,1.458-5.027,3.386-6.703,5.787c-1.676,2.403-2.514,5.099-2.514,8.09v32.952c0,1.34-0.461,2.48-1.377,3.425
		c-0.918,0.945-2.057,1.417-3.412,1.417c-1.357,0-2.494-0.473-3.412-1.417s-1.375-2.085-1.375-3.425V33.374
		c0-1.338,0.457-2.46,1.375-3.366c0.918-0.904,2.055-1.358,3.412-1.358c1.436,0,2.592,0.454,3.471,1.358
		c0.877,0.906,1.318,2.028,1.318,3.366v8.386l-2.395,2.598c0.398-2.046,1.316-4.113,2.752-6.201c1.438-2.085,3.232-3.957,5.387-5.61
		s4.549-2.971,7.184-3.957C556.324,27.606,559.076,27.114,561.949,27.114z"/>
</g>
<g>
	<path fill="#0099CC" d="M176.466,133.421c-0.306,0-0.553-0.102-0.739-0.306c-0.188-0.204-0.28-0.441-0.28-0.714v-33.64
		c0-0.271,0.102-0.51,0.306-0.713c0.204-0.204,0.441-0.306,0.713-0.306h19.216c0.271,0,0.51,0.102,0.713,0.306
		c0.204,0.204,0.306,0.442,0.306,0.713c0,0.306-0.102,0.553-0.306,0.739c-0.204,0.187-0.442,0.28-0.713,0.28h-18.349l0.153-0.204
		v14.679l-0.204-0.408h16.106c0.271,0,0.51,0.102,0.713,0.306c0.204,0.204,0.306,0.442,0.306,0.714c0,0.306-0.102,0.553-0.306,0.739
		c-0.204,0.188-0.442,0.28-0.713,0.28H177.18l0.306-0.408v16.922c0,0.272-0.094,0.51-0.28,0.714
		C177.018,133.319,176.772,133.421,176.466,133.421z"/>
	<path fill="#0099CC" d="M204.499,103.706c-0.544,0-0.977-0.153-1.3-0.458c-0.323-0.306-0.484-0.696-0.484-1.172v-0.408
		c0-0.476,0.17-0.867,0.51-1.172c0.339-0.306,0.781-0.458,1.325-0.458c0.476,0,0.875,0.153,1.198,0.458
		c0.323,0.306,0.484,0.697,0.484,1.172v0.408c0,0.476-0.162,0.867-0.484,1.172C205.424,103.553,205.009,103.706,204.499,103.706z
		 M205.519,132.401c0,0.272-0.102,0.51-0.306,0.714c-0.204,0.204-0.442,0.306-0.713,0.306c-0.306,0-0.553-0.102-0.739-0.306
		c-0.187-0.204-0.28-0.441-0.28-0.714v-24.21c0-0.271,0.102-0.51,0.306-0.713c0.204-0.204,0.441-0.306,0.714-0.306
		c0.306,0,0.552,0.102,0.739,0.306c0.187,0.204,0.281,0.442,0.281,0.713V132.401z"/>
	<path fill="#0099CC" d="M225.549,107.172c2.141,0,3.881,0.425,5.224,1.274c1.342,0.85,2.327,2.005,2.957,3.466
		c0.628,1.461,0.943,3.093,0.943,4.893v15.597c0,0.272-0.102,0.51-0.306,0.714c-0.204,0.204-0.442,0.306-0.714,0.306
		c-0.306,0-0.553-0.102-0.739-0.306c-0.188-0.204-0.281-0.441-0.281-0.714v-15.393c0-1.46-0.247-2.786-0.739-3.976
		c-0.493-1.189-1.274-2.141-2.345-2.854c-1.07-0.713-2.472-1.07-4.205-1.07c-1.496,0-2.956,0.357-4.383,1.07
		c-1.427,0.714-2.608,1.666-3.542,2.854c-0.935,1.19-1.401,2.515-1.401,3.976v15.393c0,0.272-0.102,0.51-0.306,0.714
		c-0.204,0.204-0.442,0.306-0.713,0.306c-0.306,0-0.553-0.102-0.739-0.306c-0.187-0.204-0.28-0.441-0.28-0.714v-23.395
		c0-0.271,0.102-0.509,0.306-0.713c0.204-0.204,0.441-0.306,0.714-0.306c0.306,0,0.552,0.102,0.739,0.306
		c0.187,0.204,0.281,0.442,0.281,0.713v4.995l-1.274,2.447c0-1.224,0.322-2.396,0.968-3.517c0.645-1.121,1.495-2.115,2.549-2.981
		c1.053-0.867,2.217-1.546,3.491-2.039C223.026,107.418,224.292,107.172,225.549,107.172z"/>
	<path fill="#0099CC" d="M264.184,107.987c0.306,0,0.552,0.102,0.739,0.306c0.187,0.204,0.28,0.442,0.28,0.713v23.395
		c0,0.272-0.102,0.51-0.306,0.714c-0.204,0.204-0.442,0.306-0.713,0.306c-0.306,0-0.553-0.102-0.739-0.306
		c-0.187-0.204-0.28-0.441-0.28-0.714v-7.237l0.815-0.663c0,1.088-0.272,2.191-0.815,3.313c-0.544,1.121-1.292,2.141-2.243,3.058
		c-0.952,0.917-2.073,1.656-3.364,2.217c-1.292,0.561-2.685,0.841-4.179,0.841c-2.277,0-4.307-0.594-6.091-1.784
		c-1.784-1.189-3.186-2.803-4.205-4.842c-1.02-2.039-1.529-4.333-1.529-6.881c0-2.582,0.518-4.868,1.555-6.855
		c1.036-1.988,2.446-3.55,4.23-4.689c1.784-1.138,3.797-1.707,6.04-1.707c1.46,0,2.836,0.263,4.128,0.79
		c1.291,0.527,2.421,1.266,3.39,2.217c0.968,0.952,1.724,2.064,2.268,3.339c0.543,1.274,0.815,2.659,0.815,4.154l-0.815-1.274
		v-7.391c0-0.271,0.093-0.509,0.28-0.713C263.631,108.089,263.878,107.987,264.184,107.987z M253.48,131.994
		c1.902,0,3.601-0.501,5.097-1.503c1.495-1.002,2.667-2.378,3.517-4.128c0.849-1.75,1.274-3.729,1.274-5.938
		c0-2.106-0.425-4.018-1.274-5.734c-0.85-1.715-2.022-3.075-3.517-4.077c-1.496-1.002-3.194-1.504-5.097-1.504
		c-1.87,0-3.551,0.484-5.046,1.453c-1.496,0.968-2.676,2.302-3.542,4.001c-0.866,1.7-1.299,3.653-1.299,5.862
		c0,2.209,0.424,4.188,1.274,5.938c0.849,1.75,2.021,3.126,3.517,4.128C249.878,131.493,251.577,131.994,253.48,131.994z"/>
	<path fill="#0099CC" d="M285.234,107.172c2.141,0,3.881,0.425,5.224,1.274c1.342,0.85,2.327,2.005,2.957,3.466
		c0.628,1.461,0.943,3.093,0.943,4.893v15.597c0,0.272-0.102,0.51-0.306,0.714c-0.204,0.204-0.442,0.306-0.714,0.306
		c-0.306,0-0.553-0.102-0.739-0.306c-0.188-0.204-0.281-0.441-0.281-0.714v-15.393c0-1.46-0.247-2.786-0.739-3.976
		c-0.493-1.189-1.274-2.141-2.345-2.854c-1.07-0.713-2.472-1.07-4.205-1.07c-1.496,0-2.956,0.357-4.383,1.07
		c-1.427,0.714-2.608,1.666-3.542,2.854c-0.935,1.19-1.401,2.515-1.401,3.976v15.393c0,0.272-0.102,0.51-0.306,0.714
		c-0.204,0.204-0.442,0.306-0.713,0.306c-0.306,0-0.553-0.102-0.739-0.306c-0.187-0.204-0.28-0.441-0.28-0.714v-23.395
		c0-0.271,0.102-0.509,0.306-0.713c0.204-0.204,0.441-0.306,0.714-0.306c0.306,0,0.552,0.102,0.739,0.306
		c0.187,0.204,0.281,0.442,0.281,0.713v4.995l-1.274,2.447c0-1.224,0.322-2.396,0.968-3.517c0.645-1.121,1.495-2.115,2.549-2.981
		c1.053-0.867,2.217-1.546,3.491-2.039C282.711,107.418,283.977,107.172,285.234,107.172z"/>
	<path fill="#0099CC" d="M314.083,107.172c1.529,0,2.964,0.17,4.307,0.509c1.342,0.34,2.429,0.79,3.262,1.351
		c0.832,0.561,1.249,1.146,1.249,1.758c0,0.238-0.094,0.467-0.28,0.688c-0.187,0.222-0.417,0.332-0.688,0.332
		c-0.375,0-0.671-0.102-0.892-0.306c-0.221-0.204-0.451-0.45-0.688-0.739c-0.238-0.289-0.612-0.552-1.122-0.79
		c-0.476-0.237-1.146-0.441-2.013-0.612c-0.866-0.169-1.929-0.255-3.186-0.255c-1.971,0-3.772,0.51-5.403,1.529
		c-1.631,1.019-2.931,2.388-3.899,4.103c-0.969,1.716-1.453,3.644-1.453,5.785c0,2.175,0.45,4.128,1.351,5.861
		c0.9,1.733,2.157,3.101,3.771,4.103c1.614,1.002,3.492,1.503,5.632,1.503c1.529,0,2.693-0.144,3.492-0.433
		c0.798-0.288,1.486-0.603,2.064-0.943c0.714-0.408,1.206-0.798,1.478-1.172c0.272-0.374,0.594-0.561,0.969-0.561
		c0.271,0,0.484,0.085,0.637,0.255c0.153,0.17,0.229,0.391,0.229,0.663c0,0.408-0.374,0.943-1.121,1.605
		c-0.748,0.663-1.793,1.249-3.135,1.758c-1.343,0.51-2.931,0.765-4.766,0.765c-2.481,0-4.672-0.586-6.575-1.758
		c-1.903-1.172-3.39-2.769-4.46-4.792c-1.07-2.021-1.605-4.307-1.605-6.855c0-2.378,0.535-4.579,1.605-6.601
		c1.07-2.021,2.565-3.652,4.485-4.893C309.249,107.792,311.5,107.172,314.083,107.172z"/>
	<path fill="#0099CC" d="M330.189,103.706c-0.544,0-0.977-0.153-1.3-0.458c-0.323-0.306-0.484-0.696-0.484-1.172v-0.408
		c0-0.476,0.17-0.867,0.51-1.172c0.339-0.306,0.781-0.458,1.325-0.458c0.476,0,0.875,0.153,1.198,0.458
		c0.323,0.306,0.484,0.697,0.484,1.172v0.408c0,0.476-0.162,0.867-0.484,1.172C331.114,103.553,330.699,103.706,330.189,103.706z
		 M331.208,132.401c0,0.272-0.102,0.51-0.306,0.714c-0.204,0.204-0.442,0.306-0.713,0.306c-0.306,0-0.553-0.102-0.739-0.306
		c-0.187-0.204-0.28-0.441-0.28-0.714v-24.21c0-0.271,0.102-0.51,0.306-0.713c0.204-0.204,0.441-0.306,0.714-0.306
		c0.306,0,0.552,0.102,0.739,0.306c0.187,0.204,0.281,0.442,0.281,0.713V132.401z"/>
	<path fill="#0099CC" d="M360.72,107.987c0.306,0,0.552,0.102,0.739,0.306c0.187,0.204,0.28,0.442,0.28,0.713v23.395
		c0,0.272-0.102,0.51-0.306,0.714c-0.204,0.204-0.442,0.306-0.713,0.306c-0.306,0-0.553-0.102-0.739-0.306
		c-0.187-0.204-0.28-0.441-0.28-0.714v-7.237l0.815-0.663c0,1.088-0.272,2.191-0.815,3.313c-0.544,1.121-1.292,2.141-2.243,3.058
		c-0.952,0.917-2.073,1.656-3.364,2.217c-1.292,0.561-2.685,0.841-4.179,0.841c-2.277,0-4.307-0.594-6.091-1.784
		c-1.784-1.189-3.186-2.803-4.205-4.842c-1.02-2.039-1.529-4.333-1.529-6.881c0-2.582,0.518-4.868,1.555-6.855
		c1.036-1.988,2.446-3.55,4.23-4.689c1.784-1.138,3.797-1.707,6.04-1.707c1.46,0,2.836,0.263,4.128,0.79
		c1.291,0.527,2.421,1.266,3.39,2.217c0.968,0.952,1.724,2.064,2.268,3.339c0.543,1.274,0.815,2.659,0.815,4.154l-0.815-1.274
		v-7.391c0-0.271,0.093-0.509,0.28-0.713C360.167,108.089,360.414,107.987,360.72,107.987z M350.016,131.994
		c1.902,0,3.601-0.501,5.097-1.503c1.495-1.002,2.667-2.378,3.517-4.128c0.849-1.75,1.274-3.729,1.274-5.938
		c0-2.106-0.425-4.018-1.274-5.734c-0.85-1.715-2.022-3.075-3.517-4.077c-1.496-1.002-3.194-1.504-5.097-1.504
		c-1.87,0-3.551,0.484-5.046,1.453c-1.496,0.968-2.676,2.302-3.542,4.001c-0.866,1.7-1.299,3.653-1.299,5.862
		c0,2.209,0.424,4.188,1.274,5.938c0.849,1.75,2.021,3.126,3.517,4.128C346.414,131.493,348.112,131.994,350.016,131.994z"/>
	<path fill="#0099CC" d="M372.494,132.401c0,0.272-0.102,0.51-0.306,0.714c-0.204,0.204-0.442,0.306-0.713,0.306
		c-0.306,0-0.553-0.102-0.739-0.306c-0.187-0.204-0.28-0.441-0.28-0.714V96.723c0-0.272,0.102-0.51,0.306-0.714
		c0.204-0.204,0.441-0.306,0.714-0.306c0.306,0,0.552,0.102,0.739,0.306c0.187,0.204,0.28,0.442,0.28,0.714V132.401z"/>
	<path fill="#0099CC" d="M409.09,97.742c1.936,0,3.625,0.408,5.07,1.224c1.443,0.815,2.566,1.954,3.365,3.415
		c0.797,1.461,1.197,3.16,1.197,5.097c0,1.903-0.4,3.619-1.197,5.148c-0.799,1.529-1.922,2.735-3.365,3.619
		c-1.445,0.884-3.135,1.325-5.07,1.325h-11.316l0.203-0.357v15.189c0,0.272-0.11,0.51-0.331,0.714
		c-0.222,0.204-0.468,0.306-0.739,0.306c-0.34,0-0.604-0.102-0.79-0.306c-0.187-0.204-0.28-0.441-0.28-0.714v-33.64
		c0-0.271,0.103-0.51,0.306-0.713c0.204-0.204,0.441-0.306,0.714-0.306H409.09z M409.09,115.531c1.563,0,2.896-0.348,4-1.045
		c1.104-0.696,1.963-1.657,2.574-2.88s0.918-2.6,0.918-4.128c0-1.563-0.307-2.913-0.918-4.052c-0.611-1.138-1.471-2.03-2.574-2.676
		c-1.104-0.645-2.438-0.968-4-0.968h-11.265l0.152-0.255v16.157l-0.203-0.153H409.09z"/>
	<path fill="#0099CC" d="M446.043,107.987c0.305,0,0.551,0.102,0.738,0.306c0.186,0.204,0.281,0.442,0.281,0.713v23.395
		c0,0.272-0.104,0.51-0.307,0.714c-0.203,0.204-0.441,0.306-0.713,0.306c-0.307,0-0.553-0.102-0.74-0.306
		c-0.188-0.204-0.279-0.441-0.279-0.714v-7.237l0.814-0.663c0,1.088-0.271,2.191-0.814,3.313c-0.545,1.121-1.293,2.141-2.244,3.058
		s-2.072,1.656-3.363,2.217c-1.291,0.561-2.684,0.841-4.18,0.841c-2.277,0-4.307-0.594-6.09-1.784
		c-1.785-1.189-3.186-2.803-4.205-4.842c-1.02-2.039-1.529-4.333-1.529-6.881c0-2.582,0.518-4.868,1.555-6.855
		c1.035-1.988,2.445-3.55,4.23-4.689c1.783-1.138,3.797-1.707,6.039-1.707c1.461,0,2.838,0.263,4.129,0.79s2.422,1.266,3.389,2.217
		c0.969,0.952,1.725,2.064,2.27,3.339c0.543,1.274,0.814,2.659,0.814,4.154l-0.814-1.274v-7.391c0-0.271,0.092-0.509,0.279-0.713
		S445.736,107.987,446.043,107.987z M435.338,131.994c1.904,0,3.602-0.501,5.098-1.503c1.494-1.002,2.668-2.378,3.518-4.128
		c0.848-1.75,1.273-3.729,1.273-5.938c0-2.106-0.426-4.018-1.273-5.734c-0.85-1.715-2.023-3.075-3.518-4.077
		c-1.496-1.002-3.193-1.504-5.098-1.504c-1.869,0-3.551,0.484-5.045,1.453c-1.496,0.968-2.676,2.302-3.543,4.001
		c-0.867,1.7-1.299,3.653-1.299,5.862c0,2.209,0.424,4.188,1.273,5.938c0.85,1.75,2.021,3.126,3.518,4.128
		C431.736,131.493,433.436,131.994,435.338,131.994z"/>
	<path fill="#0099CC" d="M456.543,133.421c-0.307,0-0.553-0.102-0.74-0.306c-0.188-0.204-0.279-0.441-0.279-0.714v-23.395
		c0-0.271,0.102-0.509,0.305-0.713c0.205-0.204,0.441-0.306,0.715-0.306c0.305,0,0.551,0.102,0.738,0.306s0.281,0.442,0.281,0.713
		v8.614l-0.867,1.325c0-1.325,0.229-2.667,0.688-4.027c0.459-1.358,1.129-2.625,2.014-3.797c0.883-1.172,1.963-2.123,3.236-2.854
		c1.275-0.73,2.744-1.096,4.41-1.096c0.475,0,0.984,0.068,1.527,0.204c0.545,0.136,0.816,0.459,0.816,0.968
		c0,0.306-0.086,0.561-0.254,0.765c-0.172,0.204-0.393,0.306-0.664,0.306c-0.203,0-0.449-0.077-0.738-0.229
		s-0.705-0.229-1.248-0.229c-1.088,0-2.158,0.323-3.213,0.968c-1.053,0.646-2.012,1.504-2.879,2.574s-1.555,2.234-2.064,3.491
		c-0.51,1.258-0.764,2.481-0.764,3.67v12.742c0,0.272-0.104,0.51-0.307,0.714C457.053,133.319,456.814,133.421,456.543,133.421z"/>
	<path fill="#0099CC" d="M471.936,107.783h11.824c0.271,0,0.502,0.102,0.689,0.306c0.186,0.204,0.279,0.425,0.279,0.663
		c0,0.272-0.094,0.501-0.279,0.688c-0.188,0.187-0.418,0.28-0.689,0.28h-11.824c-0.238,0-0.459-0.102-0.662-0.306
		c-0.205-0.204-0.307-0.425-0.307-0.663c0-0.272,0.102-0.501,0.307-0.688C471.477,107.877,471.697,107.783,471.936,107.783z
		 M477.135,100.291c0.305,0,0.551,0.102,0.738,0.306c0.186,0.204,0.281,0.442,0.281,0.713v26.555c0,1.121,0.143,1.946,0.432,2.472
		c0.289,0.527,0.654,0.866,1.098,1.019c0.439,0.153,0.865,0.229,1.273,0.229c0.236,0,0.441-0.033,0.611-0.102
		c0.17-0.067,0.373-0.102,0.611-0.102s0.441,0.094,0.611,0.28c0.17,0.187,0.256,0.399,0.256,0.637c0,0.306-0.195,0.569-0.586,0.79
		c-0.391,0.222-0.875,0.332-1.453,0.332c-0.203,0-0.57-0.008-1.096-0.025c-0.527-0.017-1.088-0.17-1.682-0.459
		c-0.596-0.288-1.096-0.815-1.504-1.58c-0.408-0.764-0.611-1.894-0.611-3.389V101.31c0-0.271,0.102-0.51,0.305-0.713
		C476.625,100.393,476.861,100.291,477.135,100.291z"/>
	<path fill="#0099CC" d="M501.955,107.172c2.141,0,3.883,0.425,5.225,1.274c1.342,0.85,2.328,2.005,2.957,3.466
		c0.627,1.461,0.941,3.093,0.941,4.893v15.597c0,0.272-0.102,0.51-0.305,0.714c-0.203,0.204-0.441,0.306-0.713,0.306
		c-0.307,0-0.553-0.102-0.74-0.306c-0.188-0.204-0.279-0.441-0.279-0.714v-15.393c0-1.46-0.248-2.786-0.74-3.976
		c-0.492-1.189-1.273-2.141-2.344-2.854c-1.07-0.713-2.473-1.07-4.205-1.07c-1.496,0-2.957,0.357-4.383,1.07
		c-1.428,0.714-2.609,1.666-3.543,2.854c-0.936,1.19-1.402,2.515-1.402,3.976v15.393c0,0.272-0.102,0.51-0.305,0.714
		c-0.205,0.204-0.443,0.306-0.715,0.306c-0.305,0-0.553-0.102-0.738-0.306c-0.188-0.204-0.281-0.441-0.281-0.714v-23.395
		c0-0.271,0.102-0.509,0.307-0.713c0.203-0.204,0.441-0.306,0.713-0.306c0.307,0,0.553,0.102,0.74,0.306
		c0.186,0.204,0.279,0.442,0.279,0.713v4.995l-1.273,2.447c0-1.224,0.322-2.396,0.969-3.517c0.645-1.121,1.494-2.115,2.547-2.981
		c1.053-0.867,2.219-1.546,3.492-2.039C499.432,107.418,500.697,107.172,501.955,107.172z"/>
	<path fill="#0099CC" d="M531.008,133.931c-2.549,0-4.801-0.543-6.754-1.631s-3.49-2.625-4.613-4.613
		c-1.121-1.988-1.682-4.324-1.682-7.008c0-2.854,0.553-5.284,1.656-7.289c1.105-2.005,2.531-3.542,4.283-4.613
		c1.748-1.07,3.609-1.605,5.58-1.605c1.428,0,2.82,0.229,4.18,0.688c1.359,0.458,2.574,1.172,3.645,2.141s1.938,2.175,2.6,3.619
		c0.662,1.445,1.027,3.169,1.096,5.173c0,0.272-0.102,0.519-0.307,0.739c-0.203,0.221-0.441,0.332-0.713,0.332h-20.795l-0.307-1.937
		h20.541l-0.51,0.458v-0.917c-0.17-1.8-0.738-3.313-1.707-4.536s-2.133-2.148-3.492-2.778c-1.359-0.628-2.77-0.943-4.23-0.943
		c-1.02,0-2.09,0.229-3.211,0.688c-1.121,0.459-2.158,1.156-3.109,2.09c-0.951,0.935-1.725,2.115-2.318,3.542
		c-0.596,1.427-0.893,3.092-0.893,4.995c0,2.073,0.416,3.976,1.248,5.708c0.834,1.733,2.072,3.126,3.721,4.179
		c1.648,1.054,3.678,1.58,6.092,1.58c1.154,0,2.242-0.195,3.262-0.586c1.02-0.39,1.938-0.909,2.752-1.555
		c0.816-0.645,1.479-1.342,1.988-2.09c0.271-0.306,0.561-0.458,0.867-0.458c0.236,0,0.441,0.094,0.611,0.28
		c0.17,0.187,0.254,0.4,0.254,0.637c0,0.238-0.068,0.442-0.203,0.611c-1.053,1.359-2.404,2.549-4.053,3.568
		C534.838,133.421,533.012,133.931,531.008,133.931z"/>
	<path fill="#0099CC" d="M548.898,133.421c-0.305,0-0.553-0.102-0.738-0.306c-0.188-0.204-0.281-0.441-0.281-0.714v-23.395
		c0-0.271,0.102-0.509,0.307-0.713c0.203-0.204,0.441-0.306,0.713-0.306c0.307,0,0.553,0.102,0.74,0.306
		c0.186,0.204,0.279,0.442,0.279,0.713v8.614l-0.867,1.325c0-1.325,0.23-2.667,0.689-4.027c0.459-1.358,1.129-2.625,2.014-3.797
		c0.883-1.172,1.961-2.123,3.236-2.854c1.273-0.73,2.742-1.096,4.408-1.096c0.477,0,0.984,0.068,1.529,0.204
		c0.543,0.136,0.816,0.459,0.816,0.968c0,0.306-0.086,0.561-0.256,0.765c-0.17,0.204-0.391,0.306-0.662,0.306
		c-0.205,0-0.451-0.077-0.74-0.229s-0.705-0.229-1.248-0.229c-1.088,0-2.158,0.323-3.211,0.968
		c-1.055,0.646-2.014,1.504-2.881,2.574c-0.865,1.07-1.553,2.234-2.063,3.491c-0.51,1.258-0.766,2.481-0.766,3.67v12.742
		c0,0.272-0.102,0.51-0.305,0.714C549.408,133.319,549.17,133.421,548.898,133.421z"/>
	<path fill="#0099CC" d="M565.209,129.343c-0.238-0.408-0.35-0.739-0.332-0.994s0.145-0.467,0.383-0.637
		c0.17-0.17,0.398-0.246,0.688-0.229c0.289,0.018,0.535,0.145,0.74,0.382c0.883,1.257,2.014,2.277,3.389,3.058
		c1.377,0.782,3,1.172,4.869,1.172c1.121,0,2.199-0.187,3.236-0.561c1.035-0.374,1.885-0.934,2.547-1.682
		c0.664-0.747,0.994-1.665,0.994-2.752c0-1.155-0.322-2.081-0.967-2.778c-0.646-0.696-1.479-1.249-2.498-1.656
		s-2.09-0.747-3.211-1.02c-1.189-0.306-2.32-0.654-3.391-1.045c-1.07-0.39-2.014-0.883-2.828-1.478
		c-0.816-0.594-1.461-1.3-1.938-2.115s-0.713-1.784-0.713-2.905c0-1.325,0.357-2.514,1.07-3.568
		c0.713-1.053,1.715-1.877,3.008-2.472c1.291-0.594,2.785-0.892,4.484-0.892c0.816,0,1.682,0.102,2.6,0.306
		c0.918,0.204,1.836,0.553,2.752,1.045c0.918,0.493,1.768,1.181,2.549,2.064c0.271,0.204,0.398,0.451,0.383,0.739
		c-0.018,0.289-0.145,0.553-0.383,0.79c-0.203,0.136-0.426,0.204-0.662,0.204c-0.238,0-0.441-0.102-0.611-0.306
		c-0.885-0.985-1.912-1.715-3.084-2.191c-1.172-0.476-2.422-0.714-3.746-0.714c-1.121,0-2.166,0.187-3.135,0.561
		c-0.969,0.375-1.76,0.926-2.371,1.657c-0.611,0.731-0.916,1.656-0.916,2.778c0.066,1.054,0.432,1.92,1.096,2.6
		c0.662,0.68,1.545,1.241,2.65,1.682c1.104,0.442,2.352,0.85,3.746,1.224c1.121,0.272,2.166,0.586,3.135,0.943
		c0.969,0.356,1.816,0.808,2.549,1.351c0.729,0.544,1.307,1.223,1.732,2.039c0.424,0.815,0.637,1.835,0.637,3.058
		c0,1.427-0.383,2.659-1.146,3.695c-0.766,1.037-1.818,1.835-3.16,2.396c-1.344,0.561-2.881,0.841-4.613,0.841
		c-1.768,0-3.465-0.357-5.098-1.07C568.012,132.146,566.535,130.975,565.209,129.343z"/>
</g>
</svg>
