<svg width="220" height="39" viewBox="0 0 220 39" fill="none" xmlns="http://www.w3.org/2000/svg">
<path d="M112.177 20.663C110.28 19.6282 108.659 18.4208 108.659 15.9027C108.659 13.3846 108.866 14.247 109.28 13.3846C110.349 11.5564 112.453 10.832 114.764 10.832C117.075 10.832 118.145 11.315 119.145 11.6599V15.2818H118.766C118.421 14.3505 117.731 12.7292 115.247 12.7292C112.764 12.7292 112.108 13.7641 112.108 15.3853C112.108 17.0066 113.247 17.5585 115.109 18.5243L116.006 18.9728C117.386 19.6971 119.801 20.9734 119.801 24.0435C119.801 27.1135 119.076 27.1825 117.903 28.1828C116.248 29.4936 114.109 29.5971 113.143 29.5971C112.177 29.5971 111.867 29.5971 111.177 29.4591C109.694 29.2522 109.004 28.9762 108.383 28.6657V25.0783H108.762C108.969 25.5612 109.211 26.3201 109.901 26.8375C110.521 27.3894 111.522 27.7344 112.66 27.7344C114.971 27.7344 116.248 26.2511 116.248 24.5954C116.248 22.9396 114.971 22.1463 113.247 21.2149L112.177 20.663Z" fill="black"/>
<path d="M123.731 13.6952C123.731 12.5224 123.593 11.8325 122.145 11.6255V11.2461H129.94C131.113 11.2461 132.182 11.2461 133.321 11.6945C135.321 12.4879 136.184 14.2126 136.184 16.0064C136.184 17.8001 136.046 17.3861 135.804 17.9725C135.494 18.6624 135.08 19.2488 134.528 19.7318C132.803 21.2495 130.561 21.353 129.388 21.353C128.216 21.353 127.871 21.2495 127.284 21.146V26.4927C127.284 28.0105 127.629 28.5969 129.009 28.8039V29.1833H122.179V28.8039C123.662 28.4589 123.766 27.769 123.766 26.1478V13.6952H123.731ZM127.284 19.2488C127.595 19.2488 128.354 19.3868 128.94 19.3868C131.389 19.3868 132.631 18.145 132.631 16.1443C132.631 13.2468 130.113 13.1433 129.285 13.1433H127.319V19.2143H127.284V19.2488Z" fill="black"/>
<path d="M142.187 24.906C142.187 27.0101 142.532 27.2516 144.602 27.2516H147.706C149.19 27.2516 149.604 27.1481 150.052 25.6648H150.431V29.1488H137.186V28.7694C138.669 28.5279 138.703 27.631 138.703 26.1133V13.6952C138.703 12.4534 138.565 11.729 137.186 11.6255V11.2461H148.914V14.6956H148.534C148.189 13.2813 147.637 13.1778 146.568 13.1778H142.187V18.7659H145.533C147.12 18.7659 147.603 18.3865 147.844 17.1792H148.224V22.1809H147.844C147.499 20.6631 146.879 20.6631 145.292 20.6631H142.187V24.906Z" fill="black"/>
<path d="M153.57 14.0063C153.57 12.6265 153.536 11.9022 151.984 11.6607V11.2812H159.607C161.366 11.2812 162.505 11.2812 163.677 11.9711C164.919 12.661 165.885 14.0408 165.885 15.8345C165.885 17.6283 165.437 18.1457 164.609 19.008C164.022 19.5945 163.436 19.9049 163.022 20.0429L166.368 26.2864C167.334 28.1146 167.644 28.4596 168.61 28.839V29.184H166.506C164.402 29.184 163.505 28.2181 162.574 26.4934L159.538 21.0087C159.159 21.0087 158.71 21.0087 158.227 21.0087C157.744 21.0087 157.503 21.0087 156.985 21.0087V26.3209C156.985 28.2181 157.33 28.4941 158.641 28.8735V29.2184H151.949V28.8735C153.467 28.563 153.536 27.8042 153.536 26.7003V14.0063H153.57ZM157.123 19.1115H158.641C159.09 19.1115 159.573 19.1115 160.021 18.9735C161.884 18.5251 162.332 17.1108 162.332 16.1105C162.332 15.1102 161.642 14.0063 161.263 13.6959C160.469 13.1095 159.642 13.1095 158.848 13.1095H157.123V19.1115Z" fill="black"/>
<path d="M187.305 22.2849V22.6643C186.236 22.9058 185.787 23.1473 185.787 24.872V28.287C185.097 28.5974 184.959 28.6319 184.752 28.6664C183.028 29.2528 180.82 29.7012 178.819 29.7012C172.817 29.7012 168.988 26.0793 168.988 20.7671C168.988 15.455 172.472 10.8672 180.165 10.8672C187.857 10.8672 184.304 11.3501 185.649 11.764V15.455H185.235C185.097 15.11 184.994 14.8686 184.856 14.6271C184.476 14.0062 183.58 12.7989 180.406 12.7989C175.68 12.7989 172.714 15.5929 172.714 20.2152C172.714 24.8375 172.817 22.0779 173.093 23.0093C173.645 24.665 174.749 26.1483 176.198 26.9417C176.991 27.3901 178.026 27.7351 179.371 27.7351C180.716 27.7351 181.958 27.2866 182.476 26.9417V25.0445C182.476 23.2163 182.165 23.0783 180.854 22.7333V22.3539C180.854 22.2849 187.305 22.2849 187.305 22.2849Z" fill="black"/>
<path d="M194.033 24.906C194.033 27.0101 194.378 27.2516 196.448 27.2516H199.552C201.035 27.2516 201.449 27.1481 201.898 25.6648H202.277V29.1488H189.031V28.7694C190.515 28.5279 190.549 27.631 190.549 26.1133V13.6952C190.549 12.4534 190.411 11.729 189.031 11.6255V11.2461H200.759V14.6956H200.38C200.035 13.2813 199.483 13.1778 198.414 13.1778H194.102V18.7659H197.448C199.035 18.7659 199.518 18.3865 199.759 17.1792H200.139V22.1809H199.656C199.311 20.6631 198.69 20.6631 197.103 20.6631H193.998V24.8715L194.033 24.906Z" fill="black"/>
<path d="M205.416 14.214C205.416 12.8342 205.416 12.0063 203.795 11.6614V11.3164H210.556V11.6614C209.176 11.9028 208.969 12.5927 208.969 14.214V25.0453C208.969 25.7696 208.969 26.2871 209.176 26.6665C209.521 27.2874 210.142 27.3564 211.177 27.3564H214.799C216.282 27.3564 216.868 27.1149 217.144 25.7696H217.524V29.2536H203.691V28.8742C204.243 28.7362 204.623 28.6327 204.933 28.2533C205.278 27.8048 205.313 27.3219 205.313 25.8041V14.214H205.416Z" fill="black"/>
<path d="M98.2056 36.1873V3.79688H97.7227V36.1873" fill="black"/>
<path d="M29.5266 23.8033C31.9651 23.8033 33.9419 21.8265 33.9419 19.388C33.9419 16.9495 31.9651 14.9727 29.5266 14.9727C27.0881 14.9727 25.1113 16.9495 25.1113 19.388C25.1113 21.8265 27.0881 23.8033 29.5266 23.8033Z" fill="#F3A5A1"/>
<path d="M39.9094 12.1783C42.348 12.1783 44.3248 10.2015 44.3248 7.76297C44.3248 5.32446 42.348 3.34766 39.9094 3.34766C37.4709 3.34766 35.4941 5.32446 35.4941 7.76297C35.4941 10.2015 37.4709 12.1783 39.9094 12.1783Z" fill="#F29593"/>
<path d="M29.5266 12.1783C31.9651 12.1783 33.9419 10.2015 33.9419 7.76297C33.9419 5.32446 31.9651 3.34766 29.5266 3.34766C27.0881 3.34766 25.1113 5.32446 25.1113 7.76297C25.1113 10.2015 27.0881 12.1783 29.5266 12.1783Z" fill="#F3A5A1"/>
<path d="M29.5266 35.4634C31.9651 35.4634 33.9419 33.4866 33.9419 31.0481C33.9419 28.6096 31.9651 26.6328 29.5266 26.6328C27.0881 26.6328 25.1113 28.6096 25.1113 31.0481C25.1113 33.4866 27.0881 35.4634 29.5266 35.4634Z" fill="#F3A5A1"/>
<path d="M39.9094 23.8033C42.348 23.8033 44.3248 21.8265 44.3248 19.388C44.3248 16.9495 42.348 14.9727 39.9094 14.9727C37.4709 14.9727 35.4941 16.9495 35.4941 19.388C35.4941 21.8265 37.4709 23.8033 39.9094 23.8033Z" fill="#F29593"/>
<path d="M39.9094 35.4634C42.348 35.4634 44.3248 33.4866 44.3248 31.0481C44.3248 28.6096 42.348 26.6328 39.9094 26.6328C37.4709 26.6328 35.4941 28.6096 35.4941 31.0481C35.4941 33.4866 37.4709 35.4634 39.9094 35.4634Z" fill="#F29593"/>
<path d="M19.1087 3.34766C16.6596 3.34766 14.6934 5.31385 14.6934 7.76297C14.6934 10.2121 16.694 12.1783 19.1087 12.1783C21.5233 12.1783 23.524 10.1776 23.524 7.76297C23.524 5.31385 21.5578 3.34766 19.1087 3.34766Z" fill="#F5B7B1"/>
<path d="M81.4759 12.1783C83.9144 12.1783 85.8912 10.2015 85.8912 7.76297C85.8912 5.32446 83.9144 3.34766 81.4759 3.34766C79.0373 3.34766 77.0605 5.32446 77.0605 7.76297C77.0605 10.2015 79.0373 12.1783 81.4759 12.1783Z" fill="#E21C53"/>
<path d="M8.76101 35.4634C11.1995 35.4634 13.1763 33.4866 13.1763 31.0481C13.1763 28.6096 11.1995 26.6328 8.76101 26.6328C6.3225 26.6328 4.3457 28.6096 4.3457 31.0481C4.3457 33.4866 6.3225 35.4634 8.76101 35.4634Z" fill="#F8CDC8"/>
<path d="M19.1087 14.9727C16.6596 14.9727 14.6934 16.9388 14.6934 19.388C14.6934 21.8371 16.694 23.8033 19.1087 23.8033C21.5233 23.8033 23.524 21.8026 23.524 19.388C23.524 16.9388 21.5578 14.9727 19.1087 14.9727Z" fill="#F5B7B1"/>
<path d="M8.76101 12.1783C11.1995 12.1783 13.1763 10.2015 13.1763 7.76297C13.1763 5.32446 11.1995 3.34766 8.76101 3.34766C6.3225 3.34766 4.3457 5.32446 4.3457 7.76297C4.3457 10.2015 6.3225 12.1783 8.76101 12.1783Z" fill="#F8CDC8"/>
<path d="M19.1087 26.5977C16.6596 26.5977 14.6934 28.5639 14.6934 31.013C14.6934 33.4621 16.694 35.4283 19.1087 35.4283C21.5233 35.4283 23.524 33.4276 23.524 31.013C23.524 28.5639 21.5578 26.5977 19.1087 26.5977Z" fill="#F5B7B1"/>
<path d="M8.76101 23.8033C11.1995 23.8033 13.1763 21.8265 13.1763 19.388C13.1763 16.9495 11.1995 14.9727 8.76101 14.9727C6.3225 14.9727 4.3457 16.9495 4.3457 19.388C4.3457 21.8265 6.3225 23.8033 8.76101 23.8033Z" fill="#F8CDC8"/>
<path d="M71.093 26.5977C68.6439 26.5977 66.6777 28.5639 66.6777 31.013C66.6777 33.4621 68.6784 35.4283 71.093 35.4283C73.5077 35.4283 75.5084 33.4276 75.5084 31.013C75.5428 28.5639 73.5422 26.5977 71.093 26.5977Z" fill="#EA5466"/>
<path d="M71.093 3.34766C68.6439 3.34766 66.6777 5.31385 66.6777 7.76297C66.6777 10.2121 68.6784 12.1783 71.093 12.1783C73.5077 12.1783 75.5084 10.1776 75.5084 7.76297C75.5428 5.31385 73.5422 3.34766 71.093 3.34766Z" fill="#EA5466"/>
<path d="M71.093 14.9727C68.6439 14.9727 66.6777 16.9388 66.6777 19.388C66.6777 21.8371 68.6784 23.8033 71.093 23.8033C73.5077 23.8033 75.5084 21.8026 75.5084 19.388C75.5428 16.9388 73.5422 14.9727 71.093 14.9727Z" fill="#EA5466"/>
<path d="M81.4759 35.4634C83.9144 35.4634 85.8912 33.4866 85.8912 31.0481C85.8912 28.6096 83.9144 26.6328 81.4759 26.6328C79.0373 26.6328 77.0605 28.6096 77.0605 31.0481C77.0605 33.4866 79.0373 35.4634 81.4759 35.4634Z" fill="#E21C53"/>
<path d="M50.3274 35.4634C52.7659 35.4634 54.7427 33.4866 54.7427 31.0481C54.7427 28.6096 52.7659 26.6328 50.3274 26.6328C47.8889 26.6328 45.9121 28.6096 45.9121 31.0481C45.9121 33.4866 47.8889 35.4634 50.3274 35.4634Z" fill="#F08585"/>
<path d="M81.4759 23.8033C83.9144 23.8033 85.8912 21.8265 85.8912 19.388C85.8912 16.9495 83.9144 14.9727 81.4759 14.9727C79.0373 14.9727 77.0605 16.9495 77.0605 19.388C77.0605 21.8265 79.0373 23.8033 81.4759 23.8033Z" fill="#E21C53"/>
<path d="M50.3274 12.1783C52.7659 12.1783 54.7427 10.2015 54.7427 7.76297C54.7427 5.32446 52.7659 3.34766 50.3274 3.34766C47.8889 3.34766 45.9121 5.32446 45.9121 7.76297C45.9121 10.2015 47.8889 12.1783 50.3274 12.1783Z" fill="#F08585"/>
<path d="M50.3274 23.8033C52.7659 23.8033 54.7427 21.8265 54.7427 19.388C54.7427 16.9495 52.7659 14.9727 50.3274 14.9727C47.8889 14.9727 45.9121 16.9495 45.9121 19.388C45.9121 21.8265 47.8889 23.8033 50.3274 23.8033Z" fill="#F08585"/>
<path d="M60.6751 26.5977C58.226 26.5977 56.2598 28.5639 56.2598 31.013C56.2598 33.4621 58.226 35.4283 60.6751 35.4283C63.1242 35.4283 65.0904 33.4276 65.0904 31.013C65.1594 28.5639 63.1242 26.5977 60.6751 26.5977Z" fill="#ED6D73"/>
<path d="M60.6751 14.9727C58.226 14.9727 56.2598 16.9388 56.2598 19.388C56.2598 21.8371 58.226 23.8033 60.6751 23.8033C63.1242 23.8033 65.0904 21.8026 65.0904 19.388C65.1594 16.9388 63.1242 14.9727 60.6751 14.9727Z" fill="#ED6D73"/>
<path d="M60.6751 3.34766C58.226 3.34766 56.2598 5.31385 56.2598 7.76297C56.2598 10.2121 58.226 12.1783 60.6751 12.1783C63.1242 12.1783 65.0904 10.1776 65.0904 7.76297C65.1594 5.31385 63.1242 3.34766 60.6751 3.34766Z" fill="#ED6D73"/>
</svg>
